<svg id="Layer_1" data-name="Layer 1" xmlns="http://www.w3.org/2000/svg" viewBox="0 0 575.99 256.1"><defs><style>.cls-1{fill:#fff;}.cls-2{fill:#ee0303;}</style></defs><title>logo_mdz</title><rect class="cls-1" x="402.5" y="68.55" width="154" height="136"/><path class="cls-1" d="M235.94,206.18h-66.5v-9.3l6.44-.56a24.71,24.71,0,0,0,5.75-1.13,10,10,0,0,0,5.76-4.44,16.14,16.14,0,0,0,1.86-8.24v-71.7q0-14.65-6.57-22.61t-16.42-8a37.82,37.82,0,0,0-12.75,2.11,40.26,40.26,0,0,0-10.95,5.91,35.82,35.82,0,0,0-6.72,6.7,61.14,61.14,0,0,0-4.08,6V181.1a17.34,17.34,0,0,0,1.66,8.1,10.77,10.77,0,0,0,5.68,4.86,43.58,43.58,0,0,0,5.75,1.9,39.75,39.75,0,0,0,6.72.92v9.3H86.46v-9.3l6.16-.56a24.29,24.29,0,0,0,5.47-1.13,10,10,0,0,0,5.75-4.44,16,16,0,0,0,1.87-8.24v-71.7q0-14.65-6.6-22.61a20.52,20.52,0,0,0-16.46-8,37,37,0,0,0-12.77,2.18,41.58,41.58,0,0,0-11,6,33.18,33.18,0,0,0-6.8,7q-2.79,3.89-4.17,5.84v79.6a15.28,15.28,0,0,0,1.94,8,12.19,12.19,0,0,0,5.81,4.93,27.89,27.89,0,0,0,6,2.11,43.19,43.19,0,0,0,6.79,1v9.3H2.08v-9.3l6.58-.56a25.18,25.18,0,0,0,5.89-1.12,10,10,0,0,0,5.75-4.44,16,16,0,0,0,1.87-8.23V96.27a16.29,16.29,0,0,0-2-8.09,18.55,18.55,0,0,0-5.61-6.12A23.32,23.32,0,0,0,8,79.32,40.92,40.92,0,0,0,0,78v-9.3l45.72-3.1,1.94,2V87.42h1q3.46-3.53,8.45-8.31a74.83,74.83,0,0,1,9.29-7.75,43.76,43.76,0,0,1,12.12-5.63,52.63,52.63,0,0,1,15.72-2.26q13.31,0,22.86,7.25a41.24,41.24,0,0,1,13.72,17.54q5-4.94,8.79-8.66a72.45,72.45,0,0,1,10-8A45.42,45.42,0,0,1,162,65.73a52.07,52.07,0,0,1,15.84-2.26q17.28,0,27.38,11.55t10.1,35.5V181.1a17.46,17.46,0,0,0,1.66,8.1,10.8,10.8,0,0,0,5.69,4.86A37,37,0,0,0,229,196a54.5,54.5,0,0,0,7,.92v9.3Z"/><path class="cls-1" d="M386.73,203.64l-48.6,3.1-2.12-2v-13l-1.12-.28a57.62,57.62,0,0,1-18.08,13.38,50.37,50.37,0,0,1-22.16,5.21,52.39,52.39,0,0,1-22.86-5.28A57.94,57.94,0,0,1,252.59,190a73.43,73.43,0,0,1-13.16-23.39,89.65,89.65,0,0,1-4.85-30.15,79.1,79.1,0,0,1,5.2-28.59,75.5,75.5,0,0,1,14.36-23.67,63.33,63.33,0,0,1,21-15.07,61,61,0,0,1,25.39-5.64,74.6,74.6,0,0,1,19.06,2.46,68.26,68.26,0,0,1,16.11,6.28V35.69a28.41,28.41,0,0,0-2-10.8,16.36,16.36,0,0,0-5.49-7.41,27.63,27.63,0,0,0-10.64-3.88,139.91,139.91,0,0,0-14.43-1.77V3.1L360.1,0l2.12,2.11V177.45a17,17,0,0,0,1.9,8.38,16.36,16.36,0,0,0,5.56,5.84,17.27,17.27,0,0,0,7.75,2.11q5.07.42,9.3.57v9.29Zm-51-24.37V98a36.16,36.16,0,0,0-3.66-7.89,35.34,35.34,0,0,0-6.32-7.75,36.05,36.05,0,0,0-9.56-5.85,32.64,32.64,0,0,0-12.8-2.32,29.2,29.2,0,0,0-15.54,4.36,41.58,41.58,0,0,0-12.58,12.54q-5.2,7.89-8.22,20.08a111.74,111.74,0,0,0-3,27,94.7,94.7,0,0,0,2.25,21.48,56.85,56.85,0,0,0,7.59,18,39.15,39.15,0,0,0,12.6,12.68,33.63,33.63,0,0,0,18.2,4.79q11.25,0,18.63-4.93A60.68,60.68,0,0,0,335.73,179.27Z"/><path class="cls-2" d="M550.7,66.25H414.91a25.37,25.37,0,0,0-25.3,25.29v90.2A25.37,25.37,0,0,0,414.91,207h83.76V256.1L535.15,207H550.7A25.36,25.36,0,0,0,576,181.74V91.54A25.36,25.36,0,0,0,550.7,66.25Zm-45.13,134H407.32v-6.71L476.14,85.44h-17c-7.15,0-12.75.13-16.77.38a33.72,33.72,0,0,0-11.1,2.54q-3.47,1.4-6.48,8a82,82,0,0,0-5.24,17.25H412V75.17h92.82v5.2L435,190q4.44.12,9.73.19c3.53,0,7.35.06,11.44.06,3.29,0,6.7-.05,10.28-.13s8.14-.29,13.72-.63c3.28-.17,5.77-1.31,7.44-3.42a23.48,23.48,0,0,0,3.89-7.24q1.35-3.67,3.26-10.14t3.38-12.56h7.39Z"/></svg>